<svg width="452" height="293" viewBox="0 0 452 293" fill="none" xmlns="http://www.w3.org/2000/svg">
<path d="M122.466 155.043C117.79 150.345 117.782 142.722 122.448 138.015L224.019 35.5457C228.684 30.8389 236.257 30.831 240.932 35.5282L342.424 137.493C347.099 142.19 347.107 149.814 342.442 154.521L240.871 256.99C236.205 261.697 228.633 261.704 223.957 257.007L122.466 155.043Z" fill="#636FDE"/>
<path d="M178.201 211.038L232.561 156.197L286.782 210.672L240.871 256.99C236.205 261.697 228.633 261.704 223.957 257.007L178.201 211.038Z" fill="#525CB4"/>
<path d="M208.05 68.6162C203.375 63.919 203.367 56.2955 208.032 51.5887L223.958 35.5226C228.623 30.8157 236.196 30.8078 240.871 35.505L342.601 137.709C347.276 142.406 347.284 150.03 342.618 154.737L326.693 170.803C322.028 175.51 314.455 175.517 309.78 170.82L208.05 68.6162Z" fill="#707EF4"/>
<path d="M199.394 60.2218L263.842 124.627L178.582 211.099L122.622 155.176C117.934 150.492 117.906 142.868 122.559 138.149L199.394 60.2218Z" fill="#57C1AE"/>
</svg>
