<svg xmlns="http://www.w3.org/2000/svg" width="375.558" height="340" viewBox="0 0 375.558 340">
  <g id="Onboard_view_2" data-name="Onboard view 2" transform="translate(0.097 -80)">
    <rect id="Rectangle_94" data-name="Rectangle 94" width="372" height="340" transform="translate(0 80)" fill="#fff"/>
    <path id="Path_151" data-name="Path 151" d="M-405.8,114.61s120.663,1.349,144.363,8.163,48.559,19.292,91.554,58.229,47.574,93.306,63.446,111.916,31.124,20.076,38.509,21.333a43.914,43.914,0,0,0,17.066-2.231c11.884-4.06,17.862-12.661,20.286-13.914-.094,10.327,0,68.287,0,82.162-.08,9.878-.194,18.353,0,34.379-3.25,2.163-13.051,2.08-21.331,1.669a154.963,154.963,0,0,1-54.53-13.79c-24.234-11.471-83.518-51.314-112.4-68.443s-54.14-34.937-75.953-45.877S-405.8,247.976-405.8,247.976Z" transform="translate(405.796 -1)" fill="rgba(108,99,255,0.27)"/>
    <path id="Path_150" data-name="Path 150" d="M0,102.177s35.125-2.4,68.335,2.4,52,15.358,86.126,36.659,41.253,29.418,58.417,49.721,33.6,52.929,61.9,76.28,25.748,20.882,50.918,26.341,49.762,2.533,49.762,2.533V405.67s-24.592,2.507-49.762-7.882-18.243-3.006-50.918-23.89S234.958,341.866,195,316.409s-41.276-26.329-78.132-44.776-34.261-17.985-63-26.5S-.1,230.9-.1,230.9Z" fill="rgba(57,160,255,0.47)"/>
    <g id="undraw_credit_card_df1m" transform="translate(91.727 189.355)">
      <path id="Path_144" data-name="Path 144" d="M11.087,6.576,182.772,0c3.871-.148,6.889,3.219,6.741,7.521l-3.8,110.462c-.148,4.3-3.406,7.909-7.277,8.057L6.746,132.615c-3.871.148-6.889-3.219-6.741-7.521L3.81,14.633C3.958,10.331,7.216,6.724,11.087,6.576Z" transform="translate(-23.526 57.541) rotate(-17.26)" fill="rgba(141,141,141,0.25)"/>
      <path id="Path_145" data-name="Path 145" d="M11.059,6.632,179.019,0c3.872-.153,6.888,3.223,6.735,7.539l-3.765,106.368c-.153,4.317-3.416,7.94-7.288,8.093L6.74,128.632c-3.872.153-6.888-3.223-6.735-7.539L3.77,14.725C3.923,10.408,7.186,6.785,11.059,6.632Z" transform="translate(-20.779 57.917) rotate(-17.26)" fill="#fff"/>
      <path id="Path_193" data-name="Path 193" d="M-.316,6.37,175.753,0V15.5L-.521,21.805Z" transform="translate(-6.82 70.212) rotate(-17.26)" fill="#6c63ff"/>
      <rect id="Rectangle_4" data-name="Rectangle 4" width="45.671" height="6.704" transform="translate(24.847 153.081) rotate(-17.26)" fill="#bdbdbd"/>
      <rect id="Rectangle_5" data-name="Rectangle 5" width="79.191" height="6.704" transform="translate(21.489 140.287) rotate(-17.26)" fill="#e0e0e0"/>
      <rect id="Rectangle_6" data-name="Rectangle 6" width="184.53" height="112.179" rx="27.5" transform="translate(30.217 83.678)" fill="rgba(141,141,141,0.25)"/>
      <rect id="Rectangle_7" data-name="Rectangle 7" width="179.753" height="108.102" rx="27.5" transform="translate(32.313 84.821)" fill="#fff"/>
      <rect id="Rectangle_8" data-name="Rectangle 8" width="5.238" height="14.874" transform="translate(46.348 90.722)" fill="#e0e0e0"/>
      <rect id="Rectangle_9" data-name="Rectangle 9" width="5.238" height="14.874" transform="translate(53.052 90.722)" fill="#e0e0e0"/>
      <rect id="Rectangle_10" data-name="Rectangle 10" width="5.238" height="14.874" transform="translate(59.756 90.722)" fill="#e0e0e0"/>
      <rect id="Rectangle_11" data-name="Rectangle 11" width="5.238" height="14.874" transform="translate(71.489 90.722)" fill="#e0e0e0"/>
      <rect id="Rectangle_12" data-name="Rectangle 12" width="5.238" height="14.874" transform="translate(78.193 90.722)" fill="#e0e0e0"/>
      <rect id="Rectangle_13" data-name="Rectangle 13" width="5.238" height="14.874" transform="translate(84.897 90.722)" fill="#e0e0e0"/>
      <rect id="Rectangle_14" data-name="Rectangle 14" width="5.238" height="14.874" transform="translate(96.627 90.722)" fill="#e0e0e0"/>
      <rect id="Rectangle_15" data-name="Rectangle 15" width="5.238" height="14.874" transform="translate(103.334 90.722)" fill="#e0e0e0"/>
      <rect id="Rectangle_16" data-name="Rectangle 16" width="5.238" height="14.874" transform="translate(110.038 90.722)" fill="#e0e0e0"/>
      <rect id="Rectangle_17" data-name="Rectangle 17" width="5.238" height="14.874" transform="translate(121.768 90.722)" fill="#e0e0e0"/>
      <rect id="Rectangle_18" data-name="Rectangle 18" width="5.238" height="14.874" transform="translate(128.472 90.722)" fill="#e0e0e0"/>
      <rect id="Rectangle_19" data-name="Rectangle 19" width="5.238" height="14.874" transform="translate(135.176 90.722)" fill="#e0e0e0"/>
      <rect id="Rectangle_20" data-name="Rectangle 20" width="45.671" height="6.704" transform="translate(46.348 176.791)" fill="#bdbdbd"/>
      <rect id="Rectangle_21" data-name="Rectangle 21" width="79.191" height="6.704" transform="translate(46.348 165.478)" fill="#e0e0e0"/>
      <path id="Path_1" data-name="Path 1" d="M872.276,536.78a1.1,1.1,0,0,1,1.063-1.141h1.577V526.2H860.84v10.854h11.433Z" transform="translate(-695.707 -404.25)" fill="rgba(132,132,132,0.12)"/>
      <path id="Path_2" data-name="Path 2" d="M873.346,604.425a1.1,1.1,0,0,1-1.063-1.141V603H860.85v10.854h14.073v-9.429Z" transform="translate(-695.715 -459.073)" fill="rgba(132,132,132,0.12)"/>
      <rect id="Rectangle_22" data-name="Rectangle 22" width="11.433" height="5.664" transform="translate(165.135 135.389)" fill="rgba(132,132,132,0.12)"/>
      <path id="Path_3" data-name="Path 3" d="M924.629,603.285a1.1,1.1,0,0,1-1.063,1.141H922v9.439h14.073V603H924.639Z" transform="translate(-741.465 -459.072)" fill="rgba(132,132,132,0.12)"/>
      <path id="Path_4" data-name="Path 4" d="M922,526.2v9.439h1.577a1.1,1.1,0,0,1,1.063,1.141v.274h11.433V526.2Z" transform="translate(-741.465 -404.25)" fill="rgba(132,132,132,0.12)"/>
      <rect id="Rectangle_23" data-name="Rectangle 23" width="11.433" height="5.664" transform="translate(183.164 135.389)" fill="rgba(132,132,132,0.12)"/>
      <path id="Path_5" data-name="Path 5" d="M874.045,540.731a1.007,1.007,0,0,1,1.007-1.007h1.511V531.34H863.14v9.635h10.907Z" transform="translate(-697.428 -408.029)" fill="#6c63ff"/>
      <path id="Path_6" data-name="Path 6" d="M875.05,600.8a1.007,1.007,0,0,1-1.007-1.007v-.252H863.13v9.638h13.423V600.8Z" transform="translate(-697.421 -456.73)" fill="#6c63ff"/>
      <rect id="Rectangle_24" data-name="Rectangle 24" width="10.907" height="5.029" transform="translate(165.709 135.236)" fill="#6c63ff"/>
      <path id="Path_7" data-name="Path 7" d="M923.938,599.794a1.007,1.007,0,0,1-1.007,1.007H921.42v8.381h13.423V599.55h-10.9Z" transform="translate(-741.031 -456.737)" fill="#6c63ff"/>
      <path id="Path_8" data-name="Path 8" d="M921.43,531.34v8.381h1.511a1.007,1.007,0,0,1,1.007,1.007v.252h10.907v-9.64Z" transform="translate(-741.039 -408.028)" fill="#6c63ff"/>
      <rect id="Rectangle_25" data-name="Rectangle 25" width="10.907" height="5.029" transform="translate(182.91 135.236)" fill="#6c63ff"/>
    </g>
  </g>
</svg>
